<?xml version="1.0" encoding="utf-8"?>
<!-- Generator: Adobe Illustrator 23.0.3, SVG Export Plug-In . SVG Version: 6.00 Build 0)  -->
<svg version="1.1" id="Layer_1" xmlns="http://www.w3.org/2000/svg" xmlns:xlink="http://www.w3.org/1999/xlink" x="0px" y="0px"
	 viewBox="0 0 500 500" style="enable-background:new 0 0 500 500;" xml:space="preserve">
<style type="text/css">
	.st0{fill:#3D3D3D;}
</style>
<path class="st0" d="M106.5,162h-15C60.8,162,36,186.8,36,217.5V277c0,16.6,13.4,30,30,30h70c4.6-10.3,15.4-30.5,26-40v-49.5
	C162,186.8,137.2,162,106.5,162z"/>
<circle class="st0" cx="99" cy="116" r="37.5"/>
<path class="st0" d="M275.4,156.3h-50.8c-30.7,0-55.5,36.1-55.5,55.9v47.7c14.2-13.4,35.9-29.3,80.9-30.1
	c47.1,1.1,66,16.2,80.9,30.1v-47.7C330.9,192.3,306.1,156.3,275.4,156.3z"/>
<circle class="st0" cx="250" cy="97.2" r="48.2"/>
<path class="st0" d="M408.5,161h-15c-30.7,0-55.5,24.8-55.5,55.5V267c10,7.5,21.3,28.3,26,39h71c16,0,29-13,29-29v-60.5
	C464,185.8,439.2,161,408.5,161z"/>
<circle class="st0" cx="401" cy="115" r="37.5"/>
<path class="st0" d="M250,237.4c-63.8,0-115.6,51.8-115.6,115.6S186.2,468.6,250,468.6S365.6,416.8,365.6,353S313.8,237.4,250,237.4
	z M271.8,341.3c-2,11.7-29.5,64.4-30.8,70.4c6.7,1.2,12,10.1,5.8,16.6c-3.8,4-8.7,8.3-14.6,8.2c-7.4-0.2-11.3-6.4-11.9-13.1
	c-0.8-8.5,1.9-17.7,4.3-25.9c2.1-7.5,27.5-57,28.2-60c0.5-2,0.3-2.5,0.3-2.9c-0.4-0.1-0.8-0.2-1.2-0.3c-4-1.6-7.9-3.2-10.1-7.1
	c-2.6-4.7-1.3-9.8,1.2-14.1c2-3.4,7-6.1,11-4.5c6.7,2.7,12.7,6.5,15.9,13.2C272.9,328.1,273,334.7,271.8,341.3z M272.4,285.9
	c-6.8,5-17.2,7.6-25,3.4c-9.9-5.3-8.7-17.2-2.9-25.1c3.2-4.4,8.2-6.2,13.3-3.5c0.6,0.3,1.1,0.7,1.6,1.1c1-0.1,2,0,3,0.2
	c5.9,1.3,11,5,13.5,10.6C278.2,277.9,277.1,282.5,272.4,285.9z"/>
</svg>
