<?xml version="1.0" encoding="utf-8"?>
<!-- Generator: Adobe Illustrator 23.0.3, SVG Export Plug-In . SVG Version: 6.00 Build 0)  -->
<svg version="1.1" id="Layer_1" xmlns="http://www.w3.org/2000/svg" xmlns:xlink="http://www.w3.org/1999/xlink" x="0px" y="0px"
	 viewBox="0 0 500 500" style="enable-background:new 0 0 500 500;" xml:space="preserve">
<style type="text/css">
	.st0{display:none;}
	.st1{display:inline;fill:#3D3D3D;}
	.st2{display:inline;fill:none;stroke:#3D3D3D;stroke-width:23;stroke-linecap:round;stroke-miterlimit:10;}
	.st3{fill:none;stroke:#3D3D3D;stroke-width:23;stroke-linecap:round;stroke-miterlimit:10;}
	.st4{fill:#3D3D3D;}
	.st5{display:inline;fill:none;stroke:#3D3D3D;stroke-width:21;stroke-linecap:round;stroke-miterlimit:10;}
	.st6{display:inline;fill:none;stroke:#3D3D3D;stroke-width:8;stroke-miterlimit:10;}
	.st7{display:inline;fill:none;stroke:#93B93B;stroke-width:26;stroke-linecap:round;stroke-miterlimit:10;}
	.st8{display:inline;fill:none;stroke:#93B93B;stroke-width:23;stroke-linecap:round;stroke-miterlimit:10;}
</style>
<g id="Home" class="st0">
	<rect x="182.2" y="278.1" class="st1" width="139.6" height="187.7"/>
	<polygon class="st2" points="453.5,225.2 453.5,465.9 51.5,465.9 51.5,225.2 252.3,34.1 	"/>
</g>
<g id="Contact">
	<polygon class="st3" points="451,145.3 451,386 49,386 49,145.3 249.8,303.6 	"/>
	<polygon class="st4" points="462.1,122.6 37.9,122.6 249.8,312.2 	"/>
</g>
<g id="Gallery" class="st0">
	<rect x="48.5" y="172.3" class="st2" width="403" height="228.8"/>
	<rect x="48.5" y="132.6" class="st1" width="66" height="39.7"/>
	<rect x="221.5" y="126.6" class="st1" width="66" height="39.7"/>
	<rect x="186.4" y="98.9" class="st2" width="135.4" height="73.4"/>
	<circle class="st2" cx="250" cy="286.7" r="82"/>
	<circle class="st1" cx="250" cy="286.7" r="40"/>
</g>
<g id="Events" class="st0">
	<rect x="46.8" y="129.9" class="st2" width="412.4" height="259.5"/>
	<line class="st2" x1="134" y1="90.8" x2="134" y2="164.1"/>
	<line class="st2" x1="378.4" y1="90.8" x2="378.4" y2="164.1"/>
	<polygon class="st1" points="253,151 277.5,230.9 356.7,230.9 292.6,280.3 317.1,360.2 253,310.8 189,360.2 213.5,280.3 
		149.4,230.9 228.6,230.9 	"/>
</g>
<g id="Projects" class="st0">
	<rect x="54.4" y="99" class="st2" width="233.9" height="332.4"/>
	<rect x="168.4" y="73" class="st2" width="5.8" height="17.6"/>
	<rect x="145" y="88.7" class="st2" width="52.6" height="32.6"/>
	<path class="st5" d="M427.4,420.1l-22.2-18c-3.8,1.1-5.1,1.5-8.9,2.6l-9.2,27c-5.6-0.2-5.2-0.2-10.8-0.3l-7.1-27.5
		c-3.7-1.3-5-1.8-8.7-3.1L337,417.4c-4.4-3.4-4.1-3.1-8.5-6.5l10.7-26.5c-2.2-3.2-3-4.3-5.2-7.5l-28.9-0.1
		c-1.5-5.3-1.4-4.9-2.9-10.2l24.4-15.4c0.2-3.9,0.2-5.2,0.4-9.1L304,325.4c1.9-5.2,1.8-4.8,3.7-10l28.8,1.6c2.4-3.1,3.3-4.1,5.7-7.2
		l-8.6-27c4.7-3.1,4.3-2.9,9-6l22.2,18c3.8-1.1,5.1-1.5,8.9-2.6l9.2-27c5.6,0.2,5.2,0.2,10.8,0.3l7.1,27.5c3.7,1.3,5,1.8,8.7,3.1
		l23.6-16.7c4.4,3.4,4.1,3.1,8.5,6.5l-10.7,26.5c2.2,3.2,3,4.3,5.2,7.5l28.9,0.1c1.5,5.3,1.4,4.9,2.9,10.2l-24.4,15.4
		c-0.2,3.9-0.2,5.2-0.4,9.1l23.2,16.7c-1.9,5.2-1.8,4.8-3.7,10l-28.8-1.6c-2.4,3.1-3.3,4.1-5.7,7.2l8.6,27
		C431.7,417.2,432.1,417,427.4,420.1z"/>
	<path class="st1" d="M227.6,182.4L441,93.9c7.5-3.1,16,0.4,19.1,7.9c3.1,7.5-0.4,16-7.9,19.1l-213.4,88.5l-44.5,4.2L227.6,182.4z"
		/>
	<line class="st6" x1="97" y1="383.5" x2="236.6" y2="383.5"/>
	<line class="st6" x1="97" y1="352.9" x2="236.6" y2="352.9"/>
	<line class="st6" x1="97" y1="322.4" x2="236.6" y2="322.4"/>
	<line class="st6" x1="97" y1="291.8" x2="236.6" y2="291.8"/>
	<line class="st6" x1="97" y1="261.3" x2="236.6" y2="261.3"/>
	<line class="st6" x1="97" y1="230.7" x2="236.6" y2="230.7"/>
	<line class="st6" x1="97" y1="200.2" x2="194.3" y2="200.2"/>
	<line class="st6" x1="97" y1="169.6" x2="236.6" y2="169.6"/>
</g>
<g id="Hamburger" class="st0">
	<line class="st7" x1="139" y1="184" x2="360" y2="184"/>
	<line class="st7" x1="139" y1="250" x2="360" y2="250"/>
	<line class="st7" x1="139" y1="316" x2="360" y2="316"/>
	<path class="st8" d="M341.8,451H158.2C97.9,451,49,402.1,49,341.8V158.2C49,97.9,97.9,49,158.2,49h183.6
		C402.1,49,451,97.9,451,158.2v183.6C451,402.1,402.1,451,341.8,451z"/>
</g>
</svg>
